<svg width="780.9294189453125px" height="120.8px" xmlns="http://www.w3.org/2000/svg" viewBox="-140.46470947265624 14.600000000000001 780.9294189453125 120.8" style="background: rgba(0, 0, 0, 0);" preserveAspectRatio="xMidYMid"><defs><filter id="editing-hole" x="-100%" y="-100%" width="300%" height="300%"><feFlood flood-color="#000" result="black"></feFlood><feMorphology operator="dilate" radius="2" in="SourceGraphic" result="erode"></feMorphology><feGaussianBlur in="erode" stdDeviation="4" result="blur"></feGaussianBlur><feOffset in="blur" dx="2" dy="2" result="offset"></feOffset><feComposite operator="atop" in="offset" in2="black" result="merge"></feComposite><feComposite operator="in" in="merge" in2="SourceGraphic" result="inner-shadow"></feComposite></filter></defs><g filter="url(#editing-hole)"><g transform="translate(-29.20353865623474, 99)"><path d="M14.14 0L0.51 0L7.81-38.91L8.51-42.24L22.21-42.24L14.14 0ZM40.13-3.78L40.13-3.78L40.13-3.78Q38.40 1.28 31.74 1.28L31.74 1.28L31.74 1.28Q26.82 1.28 23.42-4.61L23.42-4.61L23.42-4.61Q19.97-10.50 19.33-20.10L19.33-20.10L19.33-20.10Q26.37-32.96 31.23-38.27L31.23-38.27L31.23-38.27Q35.90-43.33 40.77-43.33L40.77-43.33L40.77-43.33Q43.39-43.33 45.28-41.92L45.28-41.92L45.28-41.92Q47.17-40.51 47.62-38.27L47.62-38.27L47.62-38.27Q45.44-37.38 44.42-36.67L44.42-36.67L44.42-36.67Q41.86-34.75 38.40-30.46L38.40-30.46L32.58-23.49L32.58-23.49Q31.17-21.82 30.59-21.06L30.59-21.06L30.59-21.06Q31.55-15.68 34.43-10.37L34.43-10.37L34.43-10.37Q37.18-5.31 40.13-3.78ZM60.93-3.52L60.93-3.52L60.93-3.52Q58.94 1.28 52.61 1.28L52.61 1.28L52.61 1.28Q49.34 1.28 47.30-0.96L47.30-0.96L47.30-0.96Q45.57-2.94 45.57-4.93L45.57-4.93L45.57-4.93Q45.57-10.11 47.94-20.22L47.94-20.22L50.30-32.64L63.30-33.92L59.39-13.70L59.39-13.70Q58.30-8.96 58.30-7.30L58.30-7.30L58.30-7.30Q58.30-3.65 60.93-3.52ZM51.46-41.54L51.46-41.54L51.46-41.54Q51.46-44.03 53.54-45.38L53.54-45.38L53.54-45.38Q55.62-46.72 58.62-46.72L58.62-46.72L58.62-46.72Q61.63-46.72 63.46-45.38L63.46-45.38L63.46-45.38Q65.28-44.03 65.28-41.54L65.28-41.54L65.28-41.54Q65.28-39.04 63.26-37.76L63.26-37.76L63.26-37.76Q61.25-36.48 58.24-36.48L58.24-36.48L58.24-36.48Q55.23-36.48 53.34-37.76L53.34-37.76L53.34-37.76Q51.46-39.04 51.46-41.54ZM112.45 1.28L112.45 1.28L112.45 1.28Q104.70 1.28 104.70-4.74L104.70-4.74L104.70-4.74Q104.70-7.36 105.82-12.45L105.82-12.45L105.82-12.45Q106.94-17.54 107.33-19.58L107.33-19.58L107.33-19.58Q108.22-24.26 108.22-25.73L108.22-25.73L108.22-25.73Q108.22-28.99 105.79-28.99L105.79-28.99L105.79-28.99Q104.19-28.99 102.66-26.78L102.66-26.78L102.66-26.78Q101.12-24.58 100.42-20.16L100.42-20.16L96.45 0L83.97 1.28L87.42-16.13L87.42-16.13Q88-19.01 88.51-22.27L88.51-22.27L88.51-22.27Q89.02-25.54 89.02-26.05L89.02-26.05L89.02-26.05Q89.02-28.99 86.85-28.99L86.85-28.99L86.85-28.99Q85.38-28.99 83.78-26.82L83.78-26.82L83.78-26.82Q82.18-24.64 81.28-20.16L81.28-20.16L77.38 0L64.77 1.28L71.49-32.64L81.92-33.92L80.83-27.46L80.83-27.46Q82.50-30.91 85.57-32.42L85.57-32.42L85.57-32.42Q88.64-33.92 93.44-33.92L93.44-33.92L93.44-33.92Q96.19-33.92 97.98-32.58L97.98-32.58L97.98-32.58Q99.78-31.23 100.35-29.06L100.35-29.06L100.35-29.06Q101.44-31.30 104.22-32.61L104.22-32.61L104.22-32.61Q107.01-33.92 110.43-33.92L110.43-33.92L110.43-33.92Q113.86-33.92 115.55-33.18L115.55-33.18L115.55-33.18Q117.25-32.45 118.27-31.23L118.27-31.23L118.27-31.23Q120-28.99 120-24.90L120-24.90L120-24.90Q120-20.86 118.27-12.48L118.27-12.48L118.27-12.48Q117.38-8.38 117.38-6.88L117.38-6.88L117.38-6.88Q117.38-5.38 118.24-4.48L118.24-4.48L118.24-4.48Q119.10-3.58 120.38-3.46L120.38-3.46L120.38-3.46Q119.74-1.28 117.54 0L117.54 0L117.54 0Q115.33 1.28 112.45 1.28ZM151.55 0L137.92 0L145.22-38.91L145.92-42.24L159.62-42.24L151.55 0ZM177.54-3.78L177.54-3.78L177.54-3.78Q175.81 1.28 169.15 1.28L169.15 1.28L169.15 1.28Q164.22 1.28 160.83-4.61L160.83-4.61L160.83-4.61Q157.38-10.50 156.74-20.10L156.74-20.10L156.74-20.10Q163.78-32.96 168.64-38.27L168.64-38.27L168.64-38.27Q173.31-43.33 178.18-43.33L178.18-43.33L178.18-43.33Q180.80-43.33 182.69-41.92L182.69-41.92L182.69-41.92Q184.58-40.51 185.02-38.27L185.02-38.27L185.02-38.27Q182.85-37.38 181.82-36.67L181.82-36.67L181.82-36.67Q179.26-34.75 175.81-30.46L175.81-30.46L169.98-23.49L169.98-23.49Q168.58-21.82 168.00-21.06L168.00-21.06L168.00-21.06Q168.96-15.68 171.84-10.37L171.84-10.37L171.84-10.37Q174.59-5.31 177.54-3.78ZM203.01-17.98L203.01-17.98L203.01-17.98Q205.31-22.08 205.31-26.24L205.31-26.24L205.31-26.24Q205.31-28.99 203.33-28.99L203.33-28.99L203.33-28.99Q201.79-28.99 200.19-26.37L200.19-26.37L200.19-26.37Q198.53-23.74 198.02-20.35L198.02-20.35L194.69 0L181.44 1.28L187.97-32.64L198.53-33.92L197.38-27.46L197.38-27.46Q200.51-33.92 207.55-33.92L207.55-33.92L207.55-33.92Q211.26-33.92 213.28-32L213.28-32L213.28-32Q215.30-30.08 215.30-26.14L215.30-26.14L215.30-26.14Q215.30-22.21 212.70-19.71L212.70-19.71L212.70-19.71Q210.11-17.22 205.70-17.22L205.70-17.22L205.70-17.22Q203.78-17.22 203.01-17.98ZM231.68-3.52L231.68-3.52L231.68-3.52Q229.70 1.28 223.36 1.28L223.36 1.28L223.36 1.28Q220.10 1.28 218.05-0.96L218.05-0.96L218.05-0.96Q216.32-2.94 216.32-4.93L216.32-4.93L216.32-4.93Q216.32-10.11 218.69-20.22L218.69-20.22L221.06-32.64L234.05-33.92L230.14-13.70L230.14-13.70Q229.06-8.96 229.06-7.30L229.06-7.30L229.06-7.30Q229.06-3.65 231.68-3.52ZM222.21-41.54L222.21-41.54L222.21-41.54Q222.21-44.03 224.29-45.38L224.29-45.38L224.29-45.38Q226.37-46.72 229.38-46.72L229.38-46.72L229.38-46.72Q232.38-46.72 234.21-45.38L234.21-45.38L234.21-45.38Q236.03-44.03 236.03-41.54L236.03-41.54L236.03-41.54Q236.03-39.04 234.02-37.76L234.02-37.76L234.02-37.76Q232.00-36.48 228.99-36.48L228.99-36.48L228.99-36.48Q225.98-36.48 224.10-37.76L224.10-37.76L224.10-37.76Q222.21-39.04 222.21-41.54ZM256.26-22.46L256.26-22.46L256.26-22.46Q257.15-24.83 257.15-26.88L257.15-26.88L257.15-26.88Q257.15-30.66 254.08-30.66L254.08-30.66L254.08-30.66Q252.48-30.66 251.17-29.22L251.17-29.22L251.17-29.22Q249.86-27.78 249.86-25.98L249.86-25.98L249.86-25.98Q249.86-24.70 250.88-23.68L250.88-23.68L250.88-23.68Q252.35-22.27 256.13-19.97L256.13-19.97L256.13-19.97Q259.90-17.66 261.34-15.78L261.34-15.78L261.34-15.78Q262.78-13.89 262.78-11.30L262.78-11.30L262.78-11.30Q262.78-8.70 261.54-6.34L261.54-6.34L261.54-6.34Q260.29-3.97 258.05-2.30L258.05-2.30L258.05-2.30Q253.25 1.28 245.57 1.28L245.57 1.28L245.57 1.28Q241.41 1.28 238.21-0.90L238.21-0.90L238.21-0.90Q235.01-3.01 235.01-5.50L235.01-5.50L235.01-5.50Q235.01-8 236.83-9.47L236.83-9.47L236.83-9.47Q238.66-10.94 241.34-10.94L241.34-10.94L241.34-10.94Q244.03-10.94 245.70-9.92L245.70-9.92L245.70-9.92Q244.86-7.81 244.86-6.40L244.86-6.40L244.86-6.40Q244.86-2.18 248.45-2.18L248.45-2.18L248.45-2.18Q249.98-2.18 251.01-3.14L251.01-3.14L251.01-3.14Q252.03-4.10 252.03-5.76L252.03-5.76L252.03-5.76Q252.03-9.02 246.53-12.48L246.53-12.48L246.53-12.48Q242.05-15.42 241.02-16.58L241.02-16.58L241.02-16.58Q239.30-18.62 239.30-21.18L239.30-21.18L239.30-21.18Q239.30-23.74 240.51-26.18L240.51-26.18L240.51-26.18Q241.73-28.61 243.97-30.34L243.97-30.34L243.97-30.34Q248.64-33.92 256.77-33.92L256.77-33.92L256.77-33.92Q260.93-33.92 263.39-32.26L263.39-32.26L263.39-32.26Q265.86-30.59 265.86-27.78L265.86-27.78L265.86-27.78Q265.86-24.96 264.16-23.36L264.16-23.36L264.16-23.36Q262.46-21.76 259.39-21.76L259.39-21.76L259.39-21.76Q257.28-21.76 256.26-22.46ZM269.25-6.40L269.25-6.40L269.25-6.40Q269.25-8.13 270.14-12.48L270.14-12.48L273.54-29.76L269.76-29.76L270.02-31.68L270.02-31.68Q277.70-33.98 285.12-39.62L285.12-39.62L288.19-39.62L286.66-32.64L291.65-32.64L291.07-29.76L286.14-29.76L282.88-12.48L282.88-12.48Q282.05-8.51 282.05-7.17L282.05-7.17L282.05-7.17Q282.05-4.10 284.74-3.46L284.74-3.46L284.74-3.46Q284.10-1.28 281.79 0L281.79 0L281.79 0Q279.49 1.28 276.22 1.28L276.22 1.28L276.22 1.28Q272.96 1.28 271.10-0.77L271.10-0.77L271.10-0.77Q269.25-2.82 269.25-6.40ZM305.02 1.28L305.02 1.28L305.02 1.28Q290.94 1.28 290.94-11.97L290.94-11.97L290.94-11.97Q290.94-21.38 296.13-27.46L296.13-27.46L296.13-27.46Q301.63-33.92 311.17-33.92L311.17-33.92L311.17-33.92Q318.08-33.92 321.60-30.72L321.60-30.72L321.60-30.72Q325.12-27.52 325.12-20.80L325.12-20.80L325.12-20.80Q325.12-10.56 319.62-4.61L319.62-4.61L319.62-4.61Q314.24 1.28 305.02 1.28ZM306.69-26.56L306.69-26.56L306.69-26.56Q305.92-24.83 305.31-22.24L305.31-22.24L305.31-22.24Q304.70-19.65 303.94-15.55L303.94-15.55L303.94-15.55Q303.17-11.46 303.17-6.40L303.17-6.40L303.17-6.40Q303.17-4.74 303.71-3.65L303.71-3.65L303.71-3.65Q304.26-2.56 305.73-2.56L305.73-2.56L305.73-2.56Q307.20-2.56 308.13-3.26L308.13-3.26L308.13-3.26Q309.06-3.97 309.76-5.63L309.76-5.63L309.76-5.63Q311.04-8.58 312.06-14.05L312.06-14.05L312.06-14.05Q313.09-19.52 313.18-21.89L313.18-21.89L313.18-21.89Q313.28-24.26 313.28-26.02L313.28-26.02L313.28-26.02Q313.28-27.78 312.77-28.93L312.77-28.93L312.77-28.93Q312.26-30.08 310.82-30.08L310.82-30.08L310.82-30.08Q309.38-30.08 308.42-29.18L308.42-29.18L308.42-29.18Q307.46-28.29 306.69-26.56ZM353.86-37.12L353.86-37.12L353.86-37.12Q354.75-38.66 354.75-40.32L354.75-40.32L354.75-40.32Q354.75-43.26 352.96-43.26L352.96-43.26L352.96-43.26Q350.21-43.26 349.06-37.63L349.06-37.63L348.10-32.64L353.92-32.64L353.54-29.76L347.52-29.76L341.76 0L328.83 1.28L334.98-29.76L330.43-29.76L331.01-32.64L335.49-32.64L336.83-37.70L336.83-37.70Q337.98-42.37 342.91-44.54L342.91-44.54L342.91-44.54Q346.50-46.08 352.51-46.08L352.51-46.08L352.51-46.08Q358.53-46.08 361.22-44.54L361.22-44.54L361.22-44.54Q363.90-43.01 363.90-40.96L363.90-40.96L363.90-40.96Q363.90-38.91 362.30-37.63L362.30-37.63L362.30-37.63Q360.70-36.35 358.91-36.35L358.91-36.35L358.91-36.35Q355.39-36.35 353.86-37.12ZM378.30-37.12L378.30-37.12L378.30-37.12Q379.20-38.66 379.20-40.32L379.20-40.32L379.20-40.32Q379.20-43.26 377.41-43.26L377.41-43.26L377.41-43.26Q374.66-43.26 373.50-37.63L373.50-37.63L372.54-32.64L378.37-32.64L377.98-29.76L371.97-29.76L366.21 0L353.28 1.28L359.42-29.76L354.88-29.76L355.46-32.64L359.94-32.64L361.28-37.70L361.28-37.70Q362.43-42.37 367.36-44.54L367.36-44.54L367.36-44.54Q370.94-46.08 376.96-46.08L376.96-46.08L376.96-46.08Q382.98-46.08 385.66-44.54L385.66-44.54L385.66-44.54Q388.35-43.01 388.35-40.96L388.35-40.96L388.35-40.96Q388.35-38.91 386.75-37.63L386.75-37.63L386.75-37.63Q385.15-36.35 383.36-36.35L383.36-36.35L383.36-36.35Q379.84-36.35 378.30-37.12ZM403.20-10.82L403.20-10.82L403.20-10.82Q404.80-9.73 404.80-7.33L404.80-7.33L404.80-7.33Q404.80-4.93 403.58-3.39L403.58-3.39L403.58-3.39Q402.37-1.86 400.38-0.83L400.38-0.83L400.38-0.83Q396.29 1.28 391.87 1.28L391.87 1.28L391.87 1.28Q387.46 1.28 384.86 0.32L384.86 0.32L384.86 0.32Q382.27-0.64 380.54-2.43L380.54-2.43L380.54-2.43Q377.15-5.82 377.15-12.03L377.15-12.03L377.15-12.03Q377.15-21.70 382.40-27.58L382.40-27.58L382.40-27.58Q388.03-33.92 397.82-33.92L397.82-33.92L397.82-33.92Q403.90-33.92 406.91-31.36L406.91-31.36L406.91-31.36Q409.15-29.44 409.15-26.30L409.15-26.30L409.15-26.30Q409.15-15.04 389.70-15.04L389.70-15.04L389.70-15.04Q389.44-13.38 389.44-11.97L389.44-11.97L389.44-11.97Q389.44-9.02 390.75-7.90L390.75-7.90L390.75-7.90Q392.06-6.78 394.50-6.78L394.50-6.78L394.50-6.78Q396.93-6.78 399.52-7.90L399.52-7.90L399.52-7.90Q402.11-9.02 403.20-10.82ZM390.14-17.79L390.14-17.79L390.14-17.79Q394.69-17.79 397.31-20.61L397.31-20.61L397.31-20.61Q399.94-23.30 399.94-27.58L399.94-27.58L399.94-27.58Q399.94-29.06 399.39-29.86L399.39-29.86L399.39-29.86Q398.85-30.66 397.76-30.66L397.76-30.66L397.76-30.66Q396.67-30.66 395.74-30.24L395.74-30.24L395.74-30.24Q394.82-29.82 393.86-28.42L393.86-28.42L393.86-28.42Q391.49-25.22 390.14-17.79ZM431.36-17.98L431.36-17.98L431.36-17.98Q433.66-22.08 433.66-26.24L433.66-26.24L433.66-26.24Q433.66-28.99 431.68-28.99L431.68-28.99L431.68-28.99Q430.14-28.99 428.54-26.37L428.54-26.37L428.54-26.37Q426.88-23.74 426.37-20.35L426.37-20.35L423.04 0L409.79 1.28L416.32-32.64L426.88-33.92L425.73-27.46L425.73-27.46Q428.86-33.92 435.90-33.92L435.90-33.92L435.90-33.92Q439.62-33.92 441.63-32L441.63-32L441.63-32Q443.65-30.08 443.65-26.14L443.65-26.14L443.65-26.14Q443.65-22.21 441.06-19.71L441.06-19.71L441.06-19.71Q438.46-17.22 434.05-17.22L434.05-17.22L434.05-17.22Q432.13-17.22 431.36-17.98ZM482.88-42.69L482.88-42.69L482.88-42.69Q498.56-42.69 498.56-31.62L498.56-31.62L498.56-31.62Q498.56-25.54 494.66-21.89L494.66-21.89L494.66-21.89Q490.82-18.24 484.10-18.24L484.10-18.24L484.10-18.24Q480.96-18.24 478.53-20.03L478.53-20.03L478.53-20.03Q477.38-20.80 476.61-21.82L476.61-21.82L476.61-21.82Q481.28-21.82 483.74-24.67L483.74-24.67L483.74-24.67Q486.21-27.52 486.21-33.09L486.21-33.09L486.21-33.09Q486.21-38.66 480.70-38.66L480.70-38.66L479.17-38.66L479.17-38.66Q478.78-38.66 478.46-38.59L478.46-38.59L471.10 0L457.22 0L465.09-41.92L465.09-41.92Q471.94-42.56 475.90-42.62L475.90-42.62L475.90-42.62Q479.87-42.69 482.88-42.69ZM501.66-1.92L501.66-1.92L501.66-1.92Q500.16-3.58 499.49-6.21L499.49-6.21L499.49-6.21Q498.82-8.83 498.82-13.12L498.82-13.12L498.82-13.12Q498.82-17.41 500.29-21.31L500.29-21.31L500.29-21.31Q501.76-25.22 504.45-28.03L504.45-28.03L504.45-28.03Q509.95-33.92 519.04-33.92L519.04-33.92L519.04-33.92Q522.30-33.92 524.67-32.83L524.67-32.83L535.62-33.92L530.88-8.96L530.88-8.96Q530.69-8.19 530.69-6.78L530.69-6.78L530.69-6.78Q530.69-5.38 531.55-4.48L531.55-4.48L531.55-4.48Q532.42-3.58 533.70-3.46L533.70-3.46L533.70-3.46Q533.06-1.28 530.72 0L530.72 0L530.72 0Q528.38 1.28 525.76 1.28L525.76 1.28L525.76 1.28Q523.14 1.28 521.38 0.29L521.38 0.29L521.38 0.29Q519.62-0.70 519.10-2.37L519.10-2.37L519.10-2.37Q518.08-0.77 515.90 0.26L515.90 0.26L515.90 0.26Q513.73 1.28 510.82 1.28L510.82 1.28L510.82 1.28Q507.90 1.28 505.54 0.51L505.54 0.51L505.54 0.51Q503.17-0.26 501.66-1.92ZM515.17-27.90L515.17-27.90L515.17-27.90Q514.43-26.75 513.79-24.80L513.79-24.80L513.79-24.80Q513.15-22.85 512.10-17.63L512.10-17.63L512.10-17.63Q511.04-12.42 511.04-8.70L511.04-8.70L511.04-8.70Q511.04-4.99 511.62-3.90L511.62-3.90L511.62-3.90Q512.19-2.82 513.22-2.82L513.22-2.82L513.22-2.82Q515.26-2.82 516.77-4.77L516.77-4.77L516.77-4.77Q518.27-6.72 518.85-10.18L518.85-10.18L522.24-28.93L522.24-28.93Q520.90-30.08 519.33-30.08L519.33-30.08L519.33-30.08Q517.76-30.08 516.83-29.57L516.83-29.57L516.83-29.57Q515.90-29.06 515.17-27.90ZM554.37-3.52L554.37-3.52L554.37-3.52Q552.38 1.28 546.05 1.28L546.05 1.28L546.05 1.28Q542.85 1.28 540.80-0.96L540.80-0.96L540.80-0.96Q539.14-2.82 539.14-4.93L539.14-4.93L539.14-4.93Q539.14-9.73 541.38-20.22L541.38-20.22L546.05-44.80L559.04-46.08L552.83-13.70L552.83-13.70Q551.74-8.96 551.74-7.30L551.74-7.30L551.74-7.30Q551.74-3.65 554.37-3.52Z" fill="#ccc"></path></g></g><style>text {
  font-size: 64px;
  font-family: Arial Black;
  dominant-baseline: central;
  text-anchor: middle;
}</style></svg>